<?xml version="1.0" encoding="UTF-8" standalone="no"?>
<svg
   version="1.1"
   width="841.88977pt"
   height="595.27557pt"
   id="svg8"
   viewBox="0 0 841.88977 595.27557"
   sodipodi:docname="unipar_logo.cdr"
   xmlns:inkscape="http://www.inkscape.org/namespaces/inkscape"
   xmlns:sodipodi="http://sodipodi.sourceforge.net/DTD/sodipodi-0.dtd"
   xmlns="http://www.w3.org/2000/svg"
   xmlns:svg="http://www.w3.org/2000/svg">
  <defs
     id="defs12" />
  <sodipodi:namedview
     id="namedview10"
     pagecolor="#ffffff"
     bordercolor="#000000"
     borderopacity="0.25"
     inkscape:showpageshadow="2"
     inkscape:pageopacity="0.0"
     inkscape:pagecheckerboard="0"
     inkscape:deskcolor="#d1d1d1"
     inkscape:document-units="pt" />
  <path
     d="m 382.7959,401.5447 h 14.7111 c 1.1347,0 2.0601,0.9254 2.0601,2.0602 v 84.569 c 0,1.1347 -0.9254,2.0602 -2.0601,2.0602 h -14.7111 c -1.1347,0 -2.0601,-0.9255 -2.0601,-2.0602 v -84.569 c 0,-1.1348 0.9254,-2.0602 2.0601,-2.0602 z m 181.8186,86.6292 c 0,1.1347 0.9254,2.0602 2.0602,2.0602 h 14.711 c 1.1347,0 2.0602,-0.9255 2.0602,-2.0602 v -71.1306 h 17.6356 c 7.1624,0 13.0225,5.86 13.0225,13.0224 0,7.1627 -5.8599,13.0227 -13.0225,13.0227 h -7.676 c -0.8092,0 -1.5023,0.4347 -1.8545,1.1631 -0.3525,0.7287 -0.2629,1.5419 0.2396,2.1762 l 34.6938,43.8064 h 20.4624 L 618.883,454.7992 c 8.5645,-4.9356 14.3622,-14.1902 14.3622,-24.7329 0,-15.6874 -12.8344,-28.5216 -28.5211,-28.5216 h -35.9893 c -2.2695,0 -4.1203,1.8509 -4.1203,4.1203 z m -149.2535,0 c 0,1.1347 0.9254,2.0602 2.0602,2.0602 h 14.711 c 1.1347,0 2.0602,-0.9255 2.0602,-2.0602 v -71.1306 h 17.6356 c 7.1624,0 13.0225,5.86 13.0225,13.0224 0,7.1627 -5.8599,13.0227 -13.0225,13.0227 h -8.0783 c -0.7804,0 -1.4496,0.4013 -1.8173,1.0896 -0.3675,0.6883 -0.3288,1.4677 0.1051,2.1162 l 8.2254,12.293 h 5.2077 c 15.6865,0 28.5211,-12.8344 28.5211,-28.5209 0,-15.6874 -12.8344,-28.5216 -28.5211,-28.5216 h -35.9893 c -2.2694,0 -4.1203,1.8509 -4.1203,4.1203 z m 62.7776,2.0602 h 15.9162 c 0.9125,0 1.6871,-0.567 1.9634,-1.4366 l 5.4112,-17.0394 h 30.6983 l 5.4113,17.0394 c 0.2762,0.8696 1.0509,1.4366 1.9633,1.4366 h 15.9162 c 0.3393,0 0.6311,-0.1482 0.8313,-0.422 0.2003,-0.2736 0.2532,-0.5966 0.1506,-0.9198 l -26.598,-83.7561 c -0.6906,-2.1743 -2.6273,-3.5915 -4.9087,-3.5915 h -16.2302 c -2.2815,0 -4.2182,1.4172 -4.9088,3.5915 l -26.598,83.7561 c -0.1026,0.3232 -0.0498,0.6462 0.1506,0.9198 0.2003,0.2738 0.492,0.422 0.8313,0.422 z m 38.6399,-66.8102 10.4275,32.8355 H 506.3511 Z M 257.2541,401.5447 h 14.7111 c 1.1347,0 2.0601,0.9254 2.0601,2.0602 v 77.8339 c 0,5.6735 -4.6273,10.3008 -10.3008,10.3008 -11.0483,0 -22.0965,0 -33.1448,0 -15.8857,0 -28.8423,-12.9566 -28.8423,-28.8423 v -59.2924 c 0,-1.1348 0.9254,-2.0602 2.0602,-2.0602 h 14.711 c 1.1347,0 2.0602,0.9254 2.0602,2.0602 V 461.27 c 0,7.9429 6.4782,14.4211 14.4211,14.4211 h 20.2041 v -72.0862 c 0,-1.1348 0.9254,-2.0602 2.0601,-2.0602 z m 52.62,1.8319 36.2365,54.257 v -54.0287 c 0,-1.1348 0.9254,-2.0602 2.0601,-2.0602 h 14.7111 c 1.1347,0 2.0601,0.9254 2.0601,2.0602 v 82.5088 c 0,2.2695 -1.8508,4.1204 -4.1203,4.1204 h -12.5081 c -1.4186,0 -2.6385,-0.6521 -3.4265,-1.8319 l -36.2364,-54.257 v 54.0287 c 0,1.1347 -0.9255,2.0602 -2.0602,2.0602 h -14.711 c -1.1348,0 -2.0602,-0.9255 -2.0602,-2.0602 V 405.665 c 0,-2.2694 1.8508,-4.1203 4.1203,-4.1203 h 12.5081 c 1.4187,0 2.6385,0.6521 3.4265,1.8319 z"
     style="fill:#242021;fill-rule:evenodd"
     id="path2" />
  <path
     d="m 202.811,512.7232 c 0,-0.2328 0.0475,-0.3809 0.1429,-0.4445 0.0952,-0.0635 0.2275,-0.0952 0.3968,-0.0952 h 1.9046 c 0.1904,0 0.328,0.0317 0.4127,0.0952 0.0847,0.0636 0.1269,0.2117 0.1269,0.4445 v 11.9356 c 0,1.2909 0.0793,2.4073 0.2382,3.349 0.1586,0.9417 0.4814,1.7248 0.968,2.349 0.4868,0.6245 1.1745,1.0847 2.0635,1.381 0.8887,0.2962 2.0632,0.4443 3.5235,0.4443 0.3597,0 0.9207,-0.0212 1.6825,-0.0634 0.7619,-0.0423 1.6082,-0.1481 2.5394,-0.3175 v -19.078 c 0,-0.2328 0.0424,-0.3809 0.1271,-0.4445 0.0845,-0.0635 0.2221,-0.0952 0.4127,-0.0952 h 1.8728 c 0.1904,0 0.3122,0.0317 0.3651,0.0952 0.0528,0.0636 0.0793,0.2117 0.0793,0.4445 v 18.8876 c 0,0.7407 -0.164,1.349 -0.4919,1.8251 -0.3282,0.4764 -0.9471,0.799 -1.8571,0.9683 -0.8043,0.1482 -1.6454,0.2487 -2.5237,0.3016 -0.8782,0.053 -1.6559,0.0794 -2.3331,0.0794 -1.7565,0 -3.2485,-0.164 -4.4759,-0.492 -1.2275,-0.328 -2.2221,-0.8783 -2.984,-1.6508 -0.7618,-0.7724 -1.3121,-1.7988 -1.6506,-3.0792 -0.3387,-1.2803 -0.508,-2.8726 -0.508,-4.7773 z m 37.1227,-0.0317 c 0,-0.2328 0.0476,-0.3809 0.143,-0.4446 0.0952,-0.0634 0.2486,-0.0952 0.4602,-0.0952 h 1.6506 c 0.2116,0 0.3651,0.0318 0.4603,0.0952 0.0954,0.0637 0.1429,0.2118 0.1429,0.4446 v 20.1256 c 0,0.529 -0.1058,0.9258 -0.3174,1.1903 -0.2116,0.2646 -0.6243,0.3968 -1.238,0.3968 h -0.8255 c -0.4866,0 -0.8304,-0.0952 -1.0315,-0.2857 -0.2011,-0.1904 -0.4497,-0.5184 -0.746,-0.984 l -7.555,-12.507 -2.5079,-4.3173 h -0.0952 v 17.5545 c 0,0.2328 -0.0424,0.3809 -0.1269,0.4443 -0.0846,0.0635 -0.2435,0.0952 -0.4763,0.0952 h -1.6506 c -0.1905,0 -0.3387,-0.0317 -0.4444,-0.0952 -0.1059,-0.0634 -0.1588,-0.2115 -0.1588,-0.4443 v -20.1258 c 0,-0.529 0.1112,-0.9258 0.3333,-1.1904 0.2223,-0.2645 0.6296,-0.3968 1.2221,-0.3968 h 0.8255 c 0.4654,0 0.7988,0.0952 0.9998,0.2858 0.2011,0.1904 0.4498,0.5185 0.746,0.9839 l 7.3964,12.2216 2.6982,4.6028 h 0.0952 z m 9.2199,0.0317 c 0,-0.2328 0.0478,-0.3809 0.1429,-0.4445 0.0952,-0.0635 0.2487,-0.0952 0.4603,-0.0952 h 1.7143 c 0.2325,0 0.3914,0.0317 0.4761,0.0952 0.0846,0.0636 0.1269,0.2117 0.1269,0.4445 v 21.1415 c 0,0.2328 -0.0423,0.3809 -0.1269,0.4443 -0.0847,0.0635 -0.2436,0.0952 -0.4761,0.0952 h -1.7143 c -0.2116,0 -0.3651,-0.0317 -0.4603,-0.0952 -0.0951,-0.0634 -0.1429,-0.2115 -0.1429,-0.4443 z m 19.0924,20.5065 c -0.1482,0.4232 -0.3122,0.7194 -0.492,0.8888 -0.1799,0.1693 -0.4815,0.2645 -0.9046,0.2857 h -1.3651 c -0.4656,0 -0.8148,-0.0741 -1.0476,-0.2223 -0.2328,-0.1481 -0.4339,-0.4654 -0.603,-0.9522 l -7.2378,-20.6653 c -0.0422,-0.1057 -0.0422,-0.2011 0,-0.2857 0.0425,-0.0845 0.1271,-0.127 0.254,-0.127 h 2.2856 c 0.254,0 0.4339,0.127 0.5398,0.381 0,0.0424 0.1056,0.3755 0.3172,1 0.2118,0.6242 0.471,1.4073 0.7777,2.349 0.307,0.9417 0.6457,1.9681 1.0159,3.0791 0.3704,1.1111 0.7301,2.1799 1.0793,3.2062 0.3492,1.0264 0.656,1.9364 0.9205,2.73 0.2645,0.7935 0.4497,1.328 0.5556,1.603 0.0212,0.0634 0.1111,0.3387 0.2699,0.8253 0.1586,0.4868 0.3333,1.0159 0.5237,1.5871 0.1906,0.5715 0.3704,1.1059 0.5396,1.6033 0.1693,0.4973 0.2752,0.7882 0.3174,0.8729 h 0.1589 l 1.5237,-4.8569 4.7297,-13.999 c 0.0847,-0.1904 0.1747,-0.3016 0.2699,-0.3334 0.0952,-0.0317 0.2274,-0.0476 0.3968,-0.0476 h 2.1903 c 0.2539,0 0.328,0.1377 0.2221,0.4127 z m 26.1393,0.5079 c 0,0.2328 -0.0368,0.4021 -0.111,0.508 -0.074,0.1057 -0.2379,0.1586 -0.492,0.1586 h -8.8249 c -1.0369,0 -1.8993,-0.1481 -2.5869,-0.4444 -0.6879,-0.2962 -1.2382,-0.6878 -1.6509,-1.1745 -0.4126,-0.4868 -0.7035,-1.0581 -0.8728,-1.7142 -0.1694,-0.656 -0.2541,-1.3544 -0.2541,-2.095 v -11.3643 c 0,-0.7196 0.0954,-1.4126 0.2858,-2.0793 0.1905,-0.6667 0.5027,-1.2487 0.9365,-1.746 0.4337,-0.4973 0.9893,-0.8941 1.6665,-1.1904 0.6772,-0.2962 1.5025,-0.4444 2.4759,-0.4444 h 8.6661 c 0.2328,0 0.3863,0.053 0.4604,0.1589 0.074,0.1057 0.1111,0.275 0.1111,0.5078 v 1.3332 c 0,0.2328 -0.0371,0.3967 -0.1111,0.4921 -0.0741,0.0952 -0.2276,0.1428 -0.4604,0.1428 h -8.6342 c -0.8889,0 -1.529,0.1957 -1.9207,0.5874 -0.3914,0.3914 -0.5871,0.9997 -0.5871,1.8251 v 4.1267 h 10.0946 c 0.2328,0 0.3861,0.0529 0.4603,0.1588 0.0739,0.1057 0.111,0.275 0.111,0.5078 v 1.2063 c 0,0.2118 -0.0371,0.3704 -0.111,0.4763 -0.0742,0.1057 -0.2275,0.1586 -0.4603,0.1586 h -10.0946 v 5.5235 c 0,0.7194 0.1904,1.2961 0.5713,1.7299 0.3809,0.4339 1.0266,0.6509 1.9365,0.6509 h 8.793 c 0.2541,0 0.418,0.0529 0.492,0.1586 0.0742,0.1059 0.111,0.2752 0.111,0.508 z m 4.7759,-19.9987 c 0,-0.5501 0.1164,-0.9576 0.3492,-1.2221 0.2328,-0.2645 0.6562,-0.3968 1.2699,-0.3968 h 7.2693 c 1.0159,0 1.931,0.1535 2.7458,0.4603 0.8148,0.3069 1.5183,0.7408 2.111,1.3016 0.5926,0.5608 1.0474,1.2221 1.3649,1.9839 0.3175,0.7619 0.4763,1.5979 0.4763,2.5079 0,1.2696 -0.3175,2.386 -0.9524,3.3488 -0.6349,0.9629 -1.5132,1.6559 -2.6347,2.0793 v 0.1269 c 0.8677,0.2752 1.4919,0.6825 1.8729,1.2223 0.3809,0.5395 0.6771,1.2009 0.8887,1.9839 l 1.8412,6.6978 c 0.0424,0.1059 0.0476,0.2277 0.0158,0.3651 -0.0317,0.1376 -0.1639,0.2064 -0.3967,0.2064 h -2.095 c -0.1059,0 -0.217,-0.0212 -0.3334,-0.0634 -0.1164,-0.0425 -0.1957,-0.1589 -0.2381,-0.3492 l -1.6823,-6.0631 c -0.1694,-0.6137 -0.3917,-1.1216 -0.6667,-1.5237 -0.275,-0.4021 -0.5979,-0.7196 -0.9683,-0.9524 -0.3702,-0.2328 -0.7829,-0.3914 -1.2379,-0.4761 -0.4549,-0.0847 -0.9471,-0.1269 -1.4762,-0.1269 h -4.5393 v 9.0153 c 0,0.2328 -0.0423,0.3809 -0.1269,0.4443 -0.0847,0.0635 -0.2433,0.0952 -0.4761,0.0952 h -1.7778 c -0.2115,0 -0.365,-0.0317 -0.4602,-0.0952 -0.0954,-0.0634 -0.143,-0.2115 -0.143,-0.4443 z m 12.6659,4.7617 c 0,-0.4234 -0.0634,-0.8519 -0.1905,-1.2856 -0.1269,-0.4339 -0.3492,-0.8306 -0.6665,-1.1905 -0.3175,-0.3598 -0.7408,-0.6506 -1.2699,-0.8729 -0.529,-0.2223 -1.1957,-0.3334 -1.9998,-0.3334 h -5.5235 v 7.4916 h 5.3012 c 0.7619,0 1.418,-0.1005 1.9683,-0.3016 0.5501,-0.2011 0.9998,-0.4761 1.349,-0.8253 0.3492,-0.3492 0.6084,-0.7513 0.7777,-1.2062 0.1694,-0.4551 0.254,-0.9471 0.254,-1.4761 z m 23.2191,9.9675 c 0,1.0581 -0.201,1.9788 -0.6032,2.7618 -0.4021,0.7829 -0.9524,1.439 -1.6506,1.9681 -0.6984,0.529 -1.5237,0.9205 -2.4761,1.1745 -0.9524,0.254 -1.9788,0.3809 -3.0791,0.3809 -0.6138,0 -1.2592,-0.0263 -1.9364,-0.0793 -0.6772,-0.0529 -1.365,-0.143 -2.0634,-0.2699 -0.6984,-0.1269 -1.3915,-0.2962 -2.0792,-0.5078 -0.6878,-0.2118 -1.3492,-0.4763 -1.9839,-0.7936 -0.2328,-0.1271 -0.2752,-0.3387 -0.1271,-0.6349 l 0.7618,-1.6826 c 0.1059,-0.2328 0.2753,-0.2962 0.5081,-0.1903 1.1003,0.4868 2.2377,0.8624 3.4124,1.1269 1.1745,0.2645 2.2485,0.3968 3.2219,0.3968 1.6084,0 2.8622,-0.3016 3.7617,-0.9046 0.8995,-0.6033 1.3492,-1.4762 1.3492,-2.6189 0,-0.5503 -0.1113,-1.0318 -0.3333,-1.4444 -0.2223,-0.4127 -0.5503,-0.7936 -0.9842,-1.1428 -0.4339,-0.3492 -0.9788,-0.6772 -1.6347,-0.9841 -0.6562,-0.3068 -1.418,-0.6189 -2.2856,-0.9364 -1.164,-0.4233 -2.185,-0.8465 -3.0632,-1.2699 -0.8783,-0.4231 -1.6084,-0.8834 -2.1904,-1.3807 -0.582,-0.4973 -1.021,-1.0529 -1.3175,-1.6667 -0.2962,-0.6137 -0.4444,-1.3226 -0.4444,-2.1267 0,-1.7354 0.6033,-3.1427 1.8095,-4.2221 1.2062,-1.0791 2.9627,-1.6188 5.2695,-1.6188 1.0581,0 2.1745,0.1005 3.349,0.3016 1.1745,0.201 2.2697,0.5237 3.2853,0.9682 0.2328,0.1057 0.307,0.2856 0.2223,0.5396 l -0.6984,1.7777 c -0.0634,0.1481 -0.1215,0.2328 -0.1745,0.2538 -0.0529,0.0212 -0.1322,0.0107 -0.2381,-0.0317 -1.0793,-0.4232 -2.1109,-0.7248 -3.095,-0.9046 -0.9842,-0.1799 -1.8993,-0.2699 -2.7458,-0.2699 -1.2699,0 -2.2538,0.2804 -2.9522,0.8412 -0.6984,0.5609 -1.0476,1.275 -1.0476,2.1427 0,0.5291 0.1164,0.9842 0.3492,1.3651 0.2328,0.3809 0.5766,0.7301 1.0264,1.0474 0.455,0.3175 1.0317,0.6244 1.7247,0.9207 0.6984,0.2962 1.5237,0.6349 2.4708,1.0159 0.8887,0.3384 1.7299,0.693 2.5342,1.0632 0.8041,0.3704 1.5078,0.8097 2.1216,1.3175 0.6137,0.5078 1.1003,1.111 1.4707,1.8094 0.3704,0.6984 0.5556,1.5342 0.5556,2.5077 z m 4.8709,-15.7449 c 0,-0.2328 0.0478,-0.3809 0.143,-0.4445 0.0951,-0.0635 0.2486,-0.0952 0.4602,-0.0952 h 1.7143 c 0.2326,0 0.3914,0.0317 0.4761,0.0952 0.0846,0.0636 0.1269,0.2117 0.1269,0.4445 v 21.1415 c 0,0.2328 -0.0423,0.3809 -0.1269,0.4443 -0.0847,0.0635 -0.2435,0.0952 -0.4761,0.0952 h -1.7143 c -0.2116,0 -0.3651,-0.0317 -0.4602,-0.0952 -0.0952,-0.0634 -0.143,-0.2115 -0.143,-0.4443 z m 23.6,10.4754 c 0,-1.1638 -0.1164,-2.2539 -0.3492,-3.2695 -0.2328,-1.0159 -0.6242,-1.9046 -1.185,-2.6665 -0.5608,-0.7618 -1.2962,-1.3651 -2.2009,-1.8094 -0.9099,-0.4444 -2.0369,-0.6667 -3.3861,-0.6667 h -4.2113 v 16.9513 h 4.3383 c 1.3279,0 2.439,-0.2116 3.3385,-0.635 0.8941,-0.4231 1.6135,-1.0157 2.1532,-1.7775 0.5396,-0.7619 0.9205,-1.6667 1.1533,-2.7143 0.2328,-1.0474 0.3492,-2.185 0.3492,-3.4124 z m -12.6974,11.2056 c -0.5715,0 -0.9841,-0.1269 -1.2382,-0.3809 -0.2538,-0.254 -0.3809,-0.656 -0.3809,-1.2062 v -19.0465 c 0,-0.55 0.1164,-0.9575 0.3492,-1.2221 0.2328,-0.2645 0.6562,-0.3968 1.2699,-0.3968 l 5.7139,-0.0317 c 1.6506,0 3.095,0.254 4.3329,0.7619 1.238,0.5078 2.275,1.2433 3.1109,2.2062 0.836,0.9629 1.4656,2.1269 1.8887,3.4918 0.4234,1.365 0.635,2.8834 0.635,4.5552 0,1.6718 -0.1958,3.1955 -0.5872,4.5711 -0.3916,1.3756 -0.9841,2.5608 -1.7777,3.5554 -0.7936,0.9947 -1.7936,1.7671 -2.9998,2.3173 -1.2062,0.5503 -2.6348,0.8253 -4.2854,0.8253 z m 35.2499,0 c -0.1904,0 -0.3439,-0.0212 -0.4603,-0.0634 -0.1164,-0.0425 -0.2169,-0.1799 -0.3016,-0.4127 l -1.5872,-4.6665 h -8.9518 l -1.5871,4.6665 c -0.1059,0.3175 -0.328,0.4761 -0.6667,0.4761 h -2.1586 c -0.2116,0 -0.3439,-0.0581 -0.3968,-0.1745 -0.0528,-0.1164 -0.0581,-0.2593 -0.0159,-0.4287 l 7.1741,-20.4113 c 0.1694,-0.5078 0.3599,-0.8412 0.5715,-0.9998 0.2116,-0.1588 0.5608,-0.2487 1.0476,-0.2699 h 0.9522 c 0.5715,0 0.9576,0.0952 1.1586,0.2858 0.2011,0.1903 0.3863,0.5183 0.5557,0.9839 l 7.1424,20.4113 c 0.0634,0.1481 0.0686,0.2858 0.0158,0.4127 -0.0529,0.1271 -0.1852,0.1905 -0.3968,0.1905 z m -5.3013,-14.3482 -1.4919,-4.6663 h -0.1587 l -1.4285,4.5077 -2.1586,6.7932 h 7.3646 z m 26.1711,3.1426 c 0,-1.1638 -0.1164,-2.2539 -0.3491,-3.2695 -0.2328,-1.0159 -0.6243,-1.9046 -1.1851,-2.6665 -0.5607,-0.7618 -1.2962,-1.3651 -2.2008,-1.8094 -0.91,-0.4444 -2.0369,-0.6667 -3.3861,-0.6667 h -4.2114 v 16.9513 h 4.3383 c 1.328,0 2.439,-0.2116 3.3385,-0.635 0.8941,-0.4231 1.6135,-1.0157 2.1533,-1.7775 0.5395,-0.7619 0.9205,-1.6667 1.1533,-2.7143 0.2327,-1.0474 0.3491,-2.185 0.3491,-3.4124 z m -12.6974,11.2056 c -0.5715,0 -0.9841,-0.1269 -1.2381,-0.3809 -0.2538,-0.254 -0.381,-0.656 -0.381,-1.2062 v -19.0465 c 0,-0.55 0.1164,-0.9575 0.3492,-1.2221 0.2328,-0.2645 0.6562,-0.3968 1.2699,-0.3968 l 5.7139,-0.0317 c 1.6506,0 3.095,0.254 4.3329,0.7619 1.238,0.5078 2.2751,1.2433 3.1109,2.2062 0.836,0.9629 1.4656,2.1269 1.8888,3.4918 0.4233,1.365 0.6349,2.8834 0.6349,4.5552 0,1.6718 -0.1957,3.1955 -0.5872,4.5711 -0.3916,1.3756 -0.9841,2.5608 -1.7777,3.5554 -0.7935,0.9947 -1.7936,1.7671 -2.9998,2.3173 -1.2062,0.5503 -2.6347,0.8253 -4.2853,0.8253 z m 35.7894,-0.6666 c 0,0.2328 -0.0368,0.4021 -0.111,0.508 -0.074,0.1057 -0.2379,0.1586 -0.492,0.1586 h -8.8249 c -1.0369,0 -1.8993,-0.1481 -2.5869,-0.4444 -0.6879,-0.2962 -1.2382,-0.6878 -1.6509,-1.1745 -0.4126,-0.4868 -0.7035,-1.0581 -0.8729,-1.7142 -0.1693,-0.656 -0.254,-1.3544 -0.254,-2.095 v -11.3643 c 0,-0.7196 0.0954,-1.4126 0.2858,-2.0793 0.1905,-0.6667 0.5027,-1.2487 0.9365,-1.746 0.4337,-0.4973 0.9893,-0.8941 1.6665,-1.1904 0.6772,-0.2962 1.5025,-0.4444 2.4759,-0.4444 h 8.6661 c 0.2328,0 0.3863,0.053 0.4604,0.1589 0.074,0.1057 0.1111,0.275 0.1111,0.5078 v 1.3332 c 0,0.2328 -0.0371,0.3967 -0.1111,0.4921 -0.0741,0.0952 -0.2276,0.1428 -0.4604,0.1428 h -8.6342 c -0.8889,0 -1.529,0.1957 -1.9207,0.5874 -0.3914,0.3914 -0.5871,0.9997 -0.5871,1.8251 v 4.1267 h 10.0946 c 0.2328,0 0.3861,0.0529 0.4602,0.1588 0.074,0.1057 0.1111,0.275 0.1111,0.5078 v 1.2063 c 0,0.2118 -0.0371,0.3704 -0.1111,0.4763 -0.0741,0.1057 -0.2274,0.1586 -0.4602,0.1586 h -10.0946 v 5.5235 c 0,0.7194 0.1904,1.2961 0.5713,1.7299 0.3809,0.4339 1.0266,0.6509 1.9365,0.6509 h 8.793 c 0.2541,0 0.418,0.0529 0.492,0.1586 0.0742,0.1059 0.111,0.2752 0.111,0.508 z m 13.3468,-19.9987 c 0,-0.5501 0.1164,-0.9576 0.3492,-1.2221 0.2328,-0.2645 0.6455,-0.3968 1.2328,-0.3968 h 7.3857 c 0.9893,0 1.9047,0.1587 2.7407,0.4761 0.8304,0.3175 1.55,0.7672 2.1533,1.3492 0.5978,0.582 1.0686,1.2804 1.4073,2.095 0.3384,0.8148 0.5078,1.7089 0.5078,2.6826 0,0.5712 -0.0952,1.2484 -0.2858,2.0315 -0.1903,0.7831 -0.5449,1.5237 -1.0581,2.2221 -0.5185,0.6984 -1.2379,1.2909 -2.1532,1.7775 -0.9205,0.4868 -2.095,0.7301 -3.5343,0.7301 h -5.8883 v 8.3806 c 0,0.2328 -0.0425,0.3809 -0.1269,0.4443 -0.0847,0.0635 -0.2435,0.0952 -0.4763,0.0952 h -1.6507 c -0.2115,0 -0.365,-0.0317 -0.4602,-0.0952 -0.0954,-0.0634 -0.143,-0.2115 -0.143,-0.4443 z m 12.7928,5.1426 c 0,-0.4444 -0.0688,-0.9046 -0.2062,-1.3809 -0.1376,-0.4761 -0.3758,-0.91 -0.7142,-1.3014 -0.3387,-0.3917 -0.8043,-0.7197 -1.3968,-0.9842 -0.5925,-0.2645 -1.3334,-0.3968 -2.2221,-0.3968 h -5.3647 v 8.0948 h 5.4281 c 1.5027,0 2.6243,-0.3545 3.3649,-1.0634 0.7408,-0.7089 1.111,-1.6984 1.111,-2.9681 z m 20.5842,15.5227 c -0.1904,0 -0.3438,-0.0212 -0.4602,-0.0634 -0.1164,-0.0425 -0.217,-0.1799 -0.3017,-0.4127 l -1.5871,-4.6665 h -8.9518 l -1.5872,4.6665 c -0.1059,0.3175 -0.328,0.4761 -0.6667,0.4761 h -2.1586 c -0.2116,0 -0.3439,-0.0581 -0.3968,-0.1745 -0.0527,-0.1164 -0.0581,-0.2593 -0.0159,-0.4287 l 7.1742,-20.4113 c 0.1693,-0.5078 0.3599,-0.8412 0.5714,-0.9998 0.2116,-0.1588 0.5608,-0.2487 1.0476,-0.2699 h 0.9523 c 0.5714,0 0.9575,0.0952 1.1586,0.2858 0.2011,0.1903 0.3863,0.5183 0.5556,0.9839 l 7.1424,20.4113 c 0.0635,0.1481 0.0686,0.2858 0.0159,0.4127 -0.053,0.1271 -0.1852,0.1905 -0.3968,0.1905 z m -5.3012,-14.3482 -1.492,-4.6663 h -0.1586 l -1.4286,4.5077 -2.1586,6.7932 h 7.3647 z m 11.8546,-6.3171 c 0,-0.5501 0.1164,-0.9576 0.3492,-1.2221 0.2328,-0.2645 0.6561,-0.3968 1.2699,-0.3968 h 7.2693 c 1.0158,0 1.931,0.1535 2.7458,0.4603 0.8147,0.3069 1.5183,0.7408 2.111,1.3016 0.5925,0.5608 1.0474,1.2221 1.3649,1.9839 0.3174,0.7619 0.4763,1.5979 0.4763,2.5079 0,1.2696 -0.3175,2.386 -0.9524,3.3488 -0.635,0.9629 -1.5132,1.6559 -2.6348,2.0793 v 0.1269 c 0.8678,0.2752 1.492,0.6825 1.8729,1.2223 0.3809,0.5395 0.6772,1.2009 0.8888,1.9839 l 1.8411,6.6978 c 0.0425,0.1059 0.0476,0.2277 0.0159,0.3651 -0.0317,0.1376 -0.164,0.2064 -0.3968,0.2064 h -2.095 c -0.1059,0 -0.2169,-0.0212 -0.3333,-0.0634 -0.1164,-0.0425 -0.1957,-0.1589 -0.2382,-0.3492 l -1.6823,-6.0631 c -0.1693,-0.6137 -0.3916,-1.1216 -0.6667,-1.5237 -0.275,-0.4021 -0.5978,-0.7196 -0.9682,-0.9524 -0.3703,-0.2328 -0.7829,-0.3914 -1.238,-0.4761 -0.4549,-0.0847 -0.9471,-0.1269 -1.4761,-0.1269 h -4.5394 v 9.0153 c 0,0.2328 -0.0422,0.3809 -0.1269,0.4443 -0.0847,0.0635 -0.2433,0.0952 -0.4761,0.0952 h -1.7777 c -0.2116,0 -0.3651,-0.0317 -0.4602,-0.0952 -0.0954,-0.0634 -0.143,-0.2115 -0.143,-0.4443 z m 12.6659,4.7617 c 0,-0.4234 -0.0635,-0.8519 -0.1906,-1.2856 -0.1269,-0.4339 -0.3492,-0.8306 -0.6664,-1.1905 -0.3175,-0.3598 -0.7409,-0.6506 -1.2699,-0.8729 -0.5291,-0.2223 -1.1958,-0.3334 -1.9998,-0.3334 h -5.5235 v 7.4916 h 5.3012 c 0.7618,0 1.418,-0.1005 1.9683,-0.3016 0.55,-0.2011 0.9998,-0.4761 1.349,-0.8253 0.3492,-0.3492 0.6083,-0.7513 0.7777,-1.2062 0.1693,-0.4551 0.254,-0.9471 0.254,-1.4761 z m 22.6476,15.9036 c -0.1904,0 -0.3438,-0.0212 -0.4602,-0.0634 -0.1164,-0.0425 -0.217,-0.1799 -0.3016,-0.4127 l -1.5872,-4.6665 h -8.9518 l -1.5872,4.6665 c -0.1059,0.3175 -0.328,0.4761 -0.6667,0.4761 h -2.1586 c -0.2116,0 -0.3438,-0.0581 -0.3968,-0.1745 -0.0527,-0.1164 -0.0581,-0.2593 -0.0159,-0.4287 l 7.1742,-20.4113 c 0.1693,-0.5078 0.3599,-0.8412 0.5715,-0.9998 0.2115,-0.1588 0.5607,-0.2487 1.0476,-0.2699 h 0.9522 c 0.5714,0 0.9575,0.0952 1.1586,0.2858 0.2011,0.1903 0.3863,0.5183 0.5556,0.9839 l 7.1424,20.4113 c 0.0635,0.1481 0.0686,0.2858 0.0159,0.4127 -0.053,0.1271 -0.1852,0.1905 -0.3968,0.1905 z m -5.3012,-14.3482 -1.492,-4.6663 h -0.1586 l -1.4285,4.5077 -2.1587,6.7932 h 7.3647 z m 26.1711,-7.3645 c 0,-0.2328 0.0476,-0.3809 0.143,-0.4446 0.0952,-0.0634 0.2486,-0.0952 0.4602,-0.0952 h 1.6506 c 0.2116,0 0.3651,0.0318 0.4603,0.0952 0.0953,0.0637 0.1429,0.2118 0.1429,0.4446 v 20.1256 c 0,0.529 -0.1059,0.9258 -0.3174,1.1903 -0.2116,0.2646 -0.6243,0.3968 -1.238,0.3968 h -0.8255 c -0.4866,0 -0.8305,-0.0952 -1.0315,-0.2857 -0.2011,-0.1904 -0.4498,-0.5184 -0.746,-0.984 l -7.5551,-12.507 -2.5078,-4.3173 h -0.0952 v 17.5545 c 0,0.2328 -0.0424,0.3809 -0.1269,0.4443 -0.0847,0.0635 -0.2435,0.0952 -0.4763,0.0952 h -1.6506 c -0.1906,0 -0.3387,-0.0317 -0.4444,-0.0952 -0.1059,-0.0634 -0.1588,-0.2115 -0.1588,-0.4443 v -20.1258 c 0,-0.529 0.1112,-0.9258 0.3333,-1.1904 0.2223,-0.2645 0.6296,-0.3968 1.2221,-0.3968 h 0.8255 c 0.4654,0 0.7988,0.0952 0.9998,0.2858 0.2011,0.1904 0.4498,0.5185 0.746,0.9839 l 7.3964,12.2216 2.6982,4.6028 h 0.0952 z m 23.0603,21.7127 c -0.1904,0 -0.3439,-0.0212 -0.4603,-0.0634 -0.1164,-0.0425 -0.2169,-0.1799 -0.3016,-0.4127 l -1.5871,-4.6665 h -8.9519 l -1.5871,4.6665 c -0.1059,0.3175 -0.328,0.4761 -0.6667,0.4761 h -2.1586 c -0.2116,0 -0.3439,-0.0581 -0.3968,-0.1745 -0.0528,-0.1164 -0.0581,-0.2593 -0.0159,-0.4287 l 7.1741,-20.4113 c 0.1694,-0.5078 0.3599,-0.8412 0.5715,-0.9998 0.2116,-0.1588 0.5608,-0.2487 1.0476,-0.2699 h 0.9522 c 0.5715,0 0.9576,0.0952 1.1587,0.2858 0.201,0.1903 0.3862,0.5183 0.5556,0.9839 l 7.1424,20.4113 c 0.0634,0.1481 0.0686,0.2858 0.0158,0.4127 -0.0529,0.1271 -0.1852,0.1905 -0.3967,0.1905 z m -5.3013,-14.3482 -1.4919,-4.6663 h -0.1587 l -1.4285,4.5077 -2.1586,6.7932 h 7.3647 z m 26.6473,13.6816 c 0,0.2328 -0.0369,0.4021 -0.1111,0.508 -0.0739,0.1057 -0.2379,0.1586 -0.4919,0.1586 h -8.825 c -1.0369,0 -1.8992,-0.1481 -2.5869,-0.4444 -0.6879,-0.2962 -1.2382,-0.6878 -1.6508,-1.1745 -0.4127,-0.4868 -0.7036,-1.0581 -0.8729,-1.7142 -0.1694,-0.656 -0.254,-1.3544 -0.254,-2.095 v -11.3643 c 0,-0.7196 0.0953,-1.4126 0.2857,-2.0793 0.1906,-0.6667 0.5027,-1.2487 0.9366,-1.746 0.4336,-0.4973 0.9892,-0.8941 1.6664,-1.1904 0.6772,-0.2962 1.5025,-0.4444 2.4759,-0.4444 h 8.6661 c 0.2328,0 0.3863,0.053 0.4605,0.1589 0.0739,0.1057 0.111,0.275 0.111,0.5078 v 1.3332 c 0,0.2328 -0.0371,0.3967 -0.111,0.4921 -0.0742,0.0952 -0.2277,0.1428 -0.4605,0.1428 h -8.6341 c -0.889,0 -1.5291,0.1957 -1.9207,0.5874 -0.3915,0.3914 -0.5872,0.9997 -0.5872,1.8251 v 4.1267 h 10.0946 c 0.2328,0 0.3861,0.0529 0.4603,0.1588 0.0739,0.1057 0.111,0.275 0.111,0.5078 v 1.2063 c 0,0.2118 -0.0371,0.3704 -0.111,0.4763 -0.0742,0.1057 -0.2275,0.1586 -0.4603,0.1586 h -10.0946 v 5.5235 c 0,0.7194 0.1904,1.2961 0.5713,1.7299 0.3809,0.4339 1.0266,0.6509 1.9366,0.6509 h 8.793 c 0.254,0 0.418,0.0529 0.4919,0.1586 0.0742,0.1059 0.1111,0.2752 0.1111,0.508 z m 19.0924,-21.0461 c 0,-0.2328 0.0475,-0.3809 0.1429,-0.4446 0.0952,-0.0634 0.2487,-0.0952 0.4603,-0.0952 h 1.6506 c 0.2116,0 0.365,0.0318 0.4602,0.0952 0.0954,0.0637 0.143,0.2118 0.143,0.4446 v 20.1256 c 0,0.529 -0.1059,0.9258 -0.3175,1.1903 -0.2116,0.2646 -0.6242,0.3968 -1.2379,0.3968 h -0.8255 c -0.4867,0 -0.8305,-0.0952 -1.0316,-0.2857 -0.201,-0.1904 -0.4497,-0.5184 -0.746,-0.984 l -7.555,-12.507 -2.5078,-4.3173 h -0.0952 v 17.5545 c 0,0.2328 -0.0425,0.3809 -0.1269,0.4443 -0.0847,0.0635 -0.2435,0.0952 -0.4763,0.0952 h -1.6506 c -0.1906,0 -0.3387,-0.0317 -0.4444,-0.0952 -0.1059,-0.0634 -0.1589,-0.2115 -0.1589,-0.4443 v -20.1258 c 0,-0.529 0.1113,-0.9258 0.3334,-1.1904 0.2223,-0.2645 0.6296,-0.3968 1.2221,-0.3968 h 0.8255 c 0.4654,0 0.7987,0.0952 0.9998,0.2858 0.2011,0.1904 0.4497,0.5185 0.746,0.9839 l 7.3964,12.2216 2.6982,4.6028 h 0.0952 z m 23.6317,15.7766 c 0,1.0581 -0.2011,1.9788 -0.6032,2.7618 -0.4022,0.7829 -0.9524,1.439 -1.6506,1.9681 -0.6984,0.529 -1.5237,0.9205 -2.4761,1.1745 -0.9524,0.254 -1.9788,0.3809 -3.0792,0.3809 -0.6137,0 -1.2591,-0.0263 -1.9363,-0.0793 -0.6772,-0.0529 -1.3651,-0.143 -2.0635,-0.2699 -0.6984,-0.1269 -1.3914,-0.2962 -2.0791,-0.5078 -0.6879,-0.2118 -1.3492,-0.4763 -1.9839,-0.7936 -0.2328,-0.1271 -0.2753,-0.3387 -0.1271,-0.6349 l 0.7618,-1.6826 c 0.1059,-0.2328 0.2753,-0.2962 0.5081,-0.1903 1.1003,0.4868 2.2377,0.8624 3.4124,1.1269 1.1745,0.2645 2.2485,0.3968 3.2219,0.3968 1.6084,0 2.8622,-0.3016 3.7617,-0.9046 0.8994,-0.6033 1.3492,-1.4762 1.3492,-2.6189 0,-0.5503 -0.1113,-1.0318 -0.3334,-1.4444 -0.2223,-0.4127 -0.5502,-0.7936 -0.9841,-1.1428 -0.4339,-0.3492 -0.9788,-0.6772 -1.6348,-0.9841 -0.6561,-0.3068 -1.418,-0.6189 -2.2855,-0.9364 -1.164,-0.4233 -2.185,-0.8465 -3.0633,-1.2699 -0.8782,-0.4231 -1.6083,-0.8834 -2.1903,-1.3807 -0.582,-0.4973 -1.0211,-1.0529 -1.3175,-1.6667 -0.2963,-0.6137 -0.4444,-1.3226 -0.4444,-2.1267 0,-1.7354 0.6032,-3.1427 1.8095,-4.2221 1.2062,-1.0791 2.9627,-1.6188 5.2695,-1.6188 1.0581,0 2.1745,0.1005 3.349,0.3016 1.1745,0.201 2.2696,0.5237 3.2853,0.9682 0.2328,0.1057 0.307,0.2856 0.2223,0.5396 l -0.6984,1.7777 c -0.0635,0.1481 -0.1215,0.2328 -0.1745,0.2538 -0.0529,0.0212 -0.1323,0.0107 -0.2382,-0.0317 -1.0793,-0.4232 -2.1108,-0.7248 -3.0949,-0.9046 -0.9842,-0.1799 -1.8993,-0.2699 -2.7458,-0.2699 -1.2699,0 -2.2539,0.2804 -2.9522,0.8412 -0.6984,0.5609 -1.0476,1.275 -1.0476,2.1427 0,0.5291 0.1164,0.9842 0.3492,1.3651 0.2328,0.3809 0.5766,0.7301 1.0263,1.0474 0.4551,0.3175 1.0318,0.6244 1.7248,0.9207 0.6984,0.2962 1.5237,0.6349 2.4708,1.0159 0.8887,0.3384 1.7299,0.693 2.5342,1.0632 0.8041,0.3704 1.5078,0.8097 2.1215,1.3175 0.6138,0.5078 1.1004,1.111 1.4708,1.8094 0.3704,0.6984 0.5556,1.5342 0.5556,2.5077 z m 19.2508,5.2695 c 0,0.2328 -0.0369,0.4021 -0.111,0.508 -0.074,0.1057 -0.238,0.1586 -0.492,0.1586 h -8.8249 c -1.0369,0 -1.8993,-0.1481 -2.587,-0.4444 -0.6879,-0.2962 -1.2381,-0.6878 -1.6508,-1.1745 -0.4126,-0.4868 -0.7035,-1.0581 -0.8729,-1.7142 -0.1693,-0.656 -0.254,-1.3544 -0.254,-2.095 v -11.3643 c 0,-0.7196 0.0954,-1.4126 0.2858,-2.0793 0.1905,-0.6667 0.5026,-1.2487 0.9365,-1.746 0.4337,-0.4973 0.9893,-0.8941 1.6665,-1.1904 0.6772,-0.2962 1.5025,-0.4444 2.4759,-0.4444 h 8.6661 c 0.2328,0 0.3863,0.053 0.4604,0.1589 0.074,0.1057 0.1111,0.275 0.1111,0.5078 v 1.3332 c 0,0.2328 -0.0371,0.3967 -0.1111,0.4921 -0.0741,0.0952 -0.2276,0.1428 -0.4604,0.1428 h -8.6342 c -0.8889,0 -1.529,0.1957 -1.9207,0.5874 -0.3914,0.3914 -0.5871,0.9997 -0.5871,1.8251 v 4.1267 h 10.0946 c 0.2328,0 0.3861,0.0529 0.4602,0.1588 0.074,0.1057 0.1111,0.275 0.1111,0.5078 v 1.2063 c 0,0.2118 -0.0371,0.3704 -0.1111,0.4763 -0.0741,0.1057 -0.2274,0.1586 -0.4602,0.1586 h -10.0946 v 5.5235 c 0,0.7194 0.1903,1.2961 0.5713,1.7299 0.3809,0.4339 1.0265,0.6509 1.9365,0.6509 h 8.793 c 0.254,0 0.418,0.0529 0.492,0.1586 0.0741,0.1059 0.111,0.2752 0.111,0.508 z"
     style="fill:#242021;fill-rule:evenodd"
     id="path4" />
  <path
     d="m 273.1419,61.8198 h 20.461 v 226.918 c -12.0015,0 -20.461,-12.1673 -20.461,-25.387 z m 291.6044,98.9166 c 7.32,-3.7874 13.3878,-9.6904 17.3819,-16.8855 h -72.7468 v 215.4812 h -133.466 c -22.694,0 -41.2033,-18.5094 -41.2033,-41.2033 V 61.8198 H 355.173 V 277.301 h 72.1773 V 61.8198 h 116.8288 c 34.0972,0 61.9945,27.8965 61.9945,61.9953 0,32.1046 -24.7337,58.709 -56.0866,61.7088 -5.4916,-5.4916 -10.9831,-10.9832 -16.4747,-16.4747 10.9735,-1.4747 22.7832,-3.9916 31.134,-8.3128 z m 22.5661,-37.3465 c -0.0363,-3.5639 -0.5266,-7.0237 -1.417,-10.3241 H 478.5964 V 328.547 H 357.9032 c 0,5.6873 7.3379,10.3242 15.6599,10.3242 H 488.9205 V 123.3899 Z M 573.1112,92.6048 C 565.7941,86.1856 556.2236,82.2807 545.7842,82.2807 H 447.8113 V 297.762 H 355.173 v 10.3241 H 458.1354 V 92.6048 c 38.3253,0 76.6506,0 114.9758,0 z M 562.853,198.2899 c 35.0394,-7.8086 57.3798,-45.1891 45.0229,-80.7292 7.7574,10.3527 12.3631,23.1834 12.3631,37.0395 0,27.2228 -17.7838,50.4922 -42.307,58.7687 z m 25.4406,25.4406 c 19.9915,-8.9743 36.2905,-38.4668 36.2905,-59.9055 0,-2.6603 -0.1698,-5.2831 -0.4992,-7.8575 15.9498,28.8131 6.3762,64.742 -21.2943,82.26 z M 303.927,61.8198 h 20.461 v 259.2045 c -12.0015,0 -20.461,-12.1673 -20.461,-25.387 z"
     style="fill:#f1192d;fill-rule:evenodd"
     id="path6" />
</svg>
